<?xml version="1.0" encoding="UTF-8"?>
<svg width="290px" height="61px" viewBox="0 0 290 61" version="1.1" xmlns="http://www.w3.org/2000/svg" xmlns:xlink="http://www.w3.org/1999/xlink">
    <!-- Generator: Sketch 48.2 (47327) - http://www.bohemiancoding.com/sketch -->
    <title>MindshiftLogo</title>
    <desc>Created with Sketch.</desc>
    <defs>
        <polygon id="path-1" points="0.00509813665 0.436930233 35.4852969 0.436930233 35.4852969 60.7060651 0.00509813665 60.7060651"></polygon>
    </defs>
    <g id="KQED-NEWS-LANDING---AUG29-Copy-2" stroke="none" stroke-width="1" fill="none" fill-rule="evenodd" transform="translate(-101.000000, -4776.000000)">
        <g id="MindshiftLogo" transform="translate(101.000000, 4776.000000)">
            <polygon id="Fill-1" fill="#323232" points="27.7257846 42.8228866 10.5394276 4 0 57.7039172 7.81594496 57.7039172 13.1981994 27.5180071 27.5977696 60 42.4179605 27.550287 47.2501726 57.7039172 55 57.7039172 45.5297082 4"></polygon>
            <g id="Group-23" transform="translate(62.000000, 0.000000)">
                <path d="M0.549040994,13.583707 C0.549040994,12.2970326 1.01637019,11.1862651 1.95386087,10.2471488 C2.88710311,9.31228837 4.01010932,8.84131163 5.31579876,8.84131163 C6.64414658,8.84131163 7.77564969,9.31228837 8.71172422,10.2471488 C9.64638261,11.1635674 10.1122957,12.2856837 10.1122957,13.6163349 C10.1122957,14.9455674 9.64638261,16.0790326 8.71172422,17.0181488 C7.79689193,17.9544279 6.67388571,18.423986 5.34837019,18.423986 C4.02143851,18.423986 2.88710311,17.9544279 1.95386087,17.0181488 C1.01637019,16.0790326 0.549040994,14.9356372 0.549040994,13.583707 Z M1.65788571,58.6783116 L9.00345093,58.6783116 L9.00345093,26.8278 L1.65788571,26.8278 L1.65788571,58.6783116 Z" id="Fill-2" fill="#323232"></path>
                <path d="M17.6395528,26.8278 L25.0176894,26.8278 L25.0176894,29.7728233 C27.5851677,27.2193349 30.4783602,25.9440093 33.7015155,25.9440093 C37.4004969,25.9440093 40.2823602,27.1129395 42.351354,29.443707 C44.1342857,31.4283349 45.0278758,34.6655907 45.0278758,39.1554744 L45.0278758,58.6783116 L37.6525714,58.6783116 L37.6525714,40.9131256 C37.6525714,37.7765907 37.2149814,35.6089628 36.3440497,34.4130791 C35.4971925,33.1930791 33.9507578,32.5830791 31.7104099,32.5830791 C29.2703851,32.5830791 27.5426832,33.3902651 26.5173913,34.9989628 C25.5175901,36.5892186 25.0176894,39.3668465 25.0176894,43.3290093 L25.0176894,58.6783116 L17.6395528,58.6783116 L17.6395528,26.8278 Z" id="Fill-4" fill="#323232"></path>
                <path d="M77.0715056,3.44564884 L84.4496422,3.44564884 L84.4496422,58.6804395 L77.0715056,58.6804395 L77.0715056,55.3438814 C74.1754807,58.1796721 70.899928,59.5968581 67.2448472,59.5968581 C62.8901888,59.5968581 59.2790087,58.0037651 56.4056422,54.8204163 C53.5563503,51.5732302 52.1302882,47.5174395 52.1302882,42.6544628 C52.1302882,37.9049744 53.5563503,33.9357186 56.4056422,30.7509512 C59.2351081,27.5463233 62.7924745,25.9447186 67.0805739,25.9447186 C70.805046,25.9447186 74.1315801,27.4725558 77.0715056,30.5239744 L77.0715056,3.44564884 Z M59.6387106,42.6544628 C59.6387106,45.7087186 60.4544124,48.1926953 62.0872323,50.1120674 C63.7625366,52.0513 65.8740149,53.0230442 68.4202509,53.0230442 C71.1406733,53.0230442 73.3371205,52.0853465 75.013841,50.2099512 C76.6877292,48.2707186 77.5275056,45.8066023 77.5275056,42.8190209 C77.5275056,39.8328581 76.6877292,37.3701605 75.013841,35.4266721 C73.3371205,33.5314163 71.1619155,32.585207 68.4853938,32.585207 C65.9604,32.585207 63.8489217,33.5413465 62.1523752,35.4607186 C60.4756547,37.4027884 59.6387106,39.8002302 59.6387106,42.6544628 Z" id="Fill-6" fill="#323232"></path>
                <path d="M140.464994,2.93793023 L147.810559,2.93793023 L147.810559,28.967907 C150.421938,26.6144419 153.306634,25.437 156.461814,25.437 C160.051752,25.437 162.925118,26.603093 165.079081,28.9352791 C166.908745,30.9624651 167.820745,34.1997209 167.820745,38.6498837 L167.820745,58.1727209 L160.478012,58.1727209 L160.478012,39.3364884 C160.478012,36.7858372 160.024845,34.9359767 159.122758,33.7925814 C158.219255,32.6477674 156.766286,32.0760698 154.763851,32.0760698 C152.194957,32.0760698 150.389366,32.8733256 149.344248,34.4621628 C148.321789,36.0765349 147.810559,38.8442326 147.810559,42.768093 L147.810559,58.1727209 L140.464994,58.1727209 L140.464994,2.93793023 Z" id="Fill-8" fill="#F16621"></path>
                <path d="M175.347294,13.0759884 C175.347294,11.789314 175.814624,10.6785465 176.752114,9.73943023 C177.685357,8.80456977 178.808363,8.33359302 180.114052,8.33359302 C181.4424,8.33359302 182.573903,8.80456977 183.509978,9.73943023 C184.444636,10.6558488 184.911965,11.7779651 184.911965,13.1086163 C184.911965,14.4378488 184.444636,15.571314 183.509978,16.5104302 C182.595145,17.4467093 181.474971,17.917686 180.14804,17.917686 C178.819692,17.917686 177.685357,17.4467093 176.752114,16.5104302 C175.814624,15.571314 175.347294,14.4279186 175.347294,13.0759884 Z M176.457555,58.170593 L183.80312,58.170593 L183.80312,26.3172442 L176.457555,26.3172442 L176.457555,58.170593 Z" id="Fill-10" fill="#F16621"></path>
                <path d="M200.044934,33.1872628 L200.044934,58.1717279 L192.666798,58.1717279 L192.666798,33.1872628 L190.054002,33.1872628 L190.054002,26.3183791 L192.666798,26.3183791 L192.666798,14.0233326 C192.666798,10.0115186 193.363543,7.17998372 194.755617,5.52163488 C196.671667,3.21214651 199.457232,2.05456512 203.112313,2.05456512 C204.418002,2.05456512 206.063568,2.43758837 208.043344,3.20079767 L208.043344,10.7208209 L207.292785,10.329286 C205.70245,9.5221 204.39676,9.11921628 203.375717,9.11921628 C202.068611,9.11921628 201.18635,9.58735581 200.73035,10.5236349 C200.27435,11.4400535 200.044934,13.2062163 200.044934,15.8207047 L200.044934,26.3183791 L208.043344,26.3183791 L208.043344,33.1872628 L200.044934,33.1872628 Z" id="Fill-12" fill="#F16621"></path>
                <polygon id="Fill-14" fill="#F16621" points="221.60722 33.1872628 221.60722 58.1717279 214.261655 58.1717279 214.261655 33.1872628 211.127717 33.1872628 211.127717 26.3183791 214.261655 26.3183791 214.261655 14.6446814 221.60722 14.6446814 221.60722 26.3183791 227.318549 26.3183791 227.318549 33.1872628"></polygon>
                <path d="M118.222815,6.70758837 L113.924802,15.0915419 C115.173846,14.287193 116.649473,13.860193 118.381424,13.860193 C120.099212,13.860193 121.504032,14.2105884 122.590219,14.9057047 C123.636753,15.5185419 124.735684,16.8264953 125.88843,18.8295651 L132.060007,15.1681465 C128.794368,9.5235186 124.257026,6.69907674 118.446566,6.69907674 C118.370094,6.69907674 118.299287,6.70758837 118.222815,6.70758837" id="Fill-16" fill="#F16621"></path>
                <path d="M130.524902,34.1998628 C128.631511,31.8109326 125.637771,29.7880023 121.547933,28.1296535 L116.519188,26.0670023 C113.128927,24.6710953 111.331834,22.8567 111.085424,20.6365837 L106.974343,28.6616302 C108.636902,30.2859326 110.853175,31.6931884 113.648653,32.874886 L118.510293,34.9006535 C119.772082,35.4439791 120.862517,36.0170953 121.774517,36.6157465 C122.689349,37.2143977 123.432827,37.8584442 124.012032,38.5450488 C124.588405,39.2288163 125.011834,39.9820953 125.28515,40.797793 C125.555635,41.6163279 125.691585,42.5157233 125.691585,43.4959791 C125.691585,45.9359791 124.911287,47.9503977 123.34361,49.5406535 C121.774517,51.1309093 119.80607,51.9267465 117.43402,51.9267465 C114.431784,51.9267465 112.144703,50.8344209 110.577026,48.6568628 C109.706094,47.5205605 109.09715,45.473514 108.750194,42.5072116 L101.046343,44.2067 C101.743088,48.9164674 103.493448,52.5750488 106.303088,55.1781884 C109.150964,57.7855837 112.764976,59.0878628 117.139461,59.0878628 C121.753275,59.0878628 125.615113,57.5614442 128.729225,54.5071884 C131.819262,51.472793 133.365697,47.6326302 133.365697,42.9867 C133.365697,39.516793 132.418293,36.588793 130.524902,34.1998628" id="Fill-18" fill="#F16621"></path>
                <g id="Group-22" transform="translate(87.801242, 0.000000)">
                    <mask id="mask-2" fill="white">
                        <use xlink:href="#path-1"></use>
                    </mask>
                    <g id="Clip-21"></g>
                    <polygon id="Fill-20" fill="#989898" mask="url(#mask-2)" points="30.7029615 0.436646512 0.00509813665 60.7060651 4.96161988 60.7060651 35.4852969 0.436646512"></polygon>
                </g>
            </g>
        </g>
    </g>
</svg>
